PathFileType	3	(X/Y/Z)	RCH0000002 BBF 15.c3d
DataRate	CameraRate	NumFrames	NumMarkers	Units	OrigDataRate	OrigDataStartFrame	OrigNumFrames
100.0	100.0	8	23	mm	100.0	209	276
Frame#	Time	T2			MAN			LASI			RASI			LPSI			LPAT			LKNE			LANK			LMED			LHEE			LTOE			RPAT			RKNE			RANK			RMED			RHEE			RTOE			RPSI			T10			RTHI			LTHI			RTIB			LTIB			
		X1	Y1	Z1	X2	Y2	Z2	X3	Y3	Z3	X4	Y4	Z4	X5	Y5	Z5	X6	Y6	Z6	X7	Y7	Z7	X8	Y8	Z8	X9	Y9	Z9	X10	Y10	Z10	X11	Y11	Z11	X12	Y12	Z12	X13	Y13	Z13	X14	Y14	Z14	X15	Y15	Z15	X16	Y16	Z16	X17	Y17	Z17	X18	Y18	Z18	X19	Y19	Z19	X20	Y20	Z20	X21	Y21	Z21	X22	Y22	Z22	X23	Y23	Z23	

209	2.080	-451.64437	64.20100	929.76033	-577.95259	72.57193	976.51917	-472.10061	85.92118	636.08986	-491.39584	-88.75420	644.15834	-587.13847	50.25464	689.21057	-427.29521	45.15584	382.26560	-455.85476	109.22834	339.04328	-496.25473	135.07515	68.01025	-503.33672	64.76717	82.39824	-541.35804	99.01057	94.67552	-450.69336	93.23949	66.98296	-529.09908	-38.31691	340.68179	-593.24614	-80.40872	327.76762	-771.75487	-69.47224	119.58180	-769.29027	-3.21011	138.45110	-783.46611	-42.22112	175.88396	-752.06258	-29.21425	79.56933	-593.28275	-20.34118	694.36785	-575.53762	28.48567	782.15710	-562.02273	-154.36973	432.15374	-474.09633	178.13668	463.12543	-674.88665	-142.16651	240.54862	-464.65346	182.54255	229.50345	
210	2.090	-440.61242	63.25441	931.50341	-567.09575	71.12436	977.93837	-463.50684	88.14365	638.52102	-479.33430	-87.01964	643.37490	-577.31611	48.89309	692.31726	-425.86180	50.67263	382.38313	-456.52691	114.22488	339.95595	-497.06011	137.43291	68.11942	-504.07254	67.40113	83.45605	-542.06611	101.74991	95.44434	-451.50385	95.56314	67.23014	-509.81108	-37.11767	340.55539	-574.03785	-79.09333	326.86902	-757.08801	-69.51892	123.85310	-753.78595	-2.85954	141.57431	-767.24796	-41.26499	179.94416	-737.82270	-30.18436	82.67710	-582.22788	-21.87577	695.92137	-564.11523	26.53346	783.99728	-545.10137	-153.09805	431.89856	-471.92884	182.36160	464.79439	-657.30570	-141.27668	242.76218	-466.07354	186.79170	229.30505	
211	2.100	-429.66882	62.03937	933.51263	-556.27515	69.30944	979.71576	-455.18522	90.38481	641.02420	-467.65049	-85.18727	643.09462	-567.73267	47.78091	695.54018	-424.88374	55.64981	382.68797	-457.58174	118.77080	341.04842	-497.94502	139.20416	68.43039	-504.62756	69.47227	84.59200	-542.80018	103.72000	96.30830	-452.24978	97.50169	67.63301	-490.35539	-35.51169	341.34395	-554.42203	-77.62483	326.59705	-741.23736	-69.66879	128.17713	-737.36013	-2.61405	144.77760	-750.34571	-40.46868	183.92604	-722.03609	-31.22673	86.12885	-571.48217	-23.11651	697.74714	-553.01152	24.74204	786.14200	-527.86693	-151.68654	432.22028	-469.98956	186.23341	466.54576	-638.88957	-140.35382	245.33129	-468.07277	190.54398	229.31329	
212	2.110	-418.81842	60.59795	935.70762	-545.49369	67.18478	981.76821	-447.07490	92.58813	643.49939	-456.33951	-83.31072	643.28816	-558.35539	46.93578	698.74639	-424.13947	59.92399	383.09923	-458.75475	122.70192	342.22314	-498.87064	140.30527	68.90606	-504.94218	70.88312	85.75176	-543.49309	104.81245	97.24542	-452.88163	98.97206	68.13353	-470.78305	-33.54116	343.03543	-534.45687	-76.03008	326.95513	-724.17824	-69.93992	132.38496	-720.01530	-2.50706	147.95020	-732.75861	-39.89086	187.70108	-704.69792	-32.31480	89.78301	-561.02924	-24.04457	699.74328	-542.22438	23.16832	788.49137	-510.40794	-150.16934	433.11584	-468.08120	189.62157	468.25981	-619.65725	-139.42763	248.15873	-470.46254	193.64690	229.48233	
213	2.120	-408.06180	58.97583	937.99992	-534.75193	64.81929	984.00354	-439.12711	94.70908	645.86221	-445.37582	-81.43713	643.89828	-549.15929	46.34523	701.81484	-423.40101	63.42616	383.55391	-459.79169	125.93233	343.40421	-499.79078	140.74471	69.51959	-504.98323	71.62545	86.90369	-544.08016	105.03872	98.25348	-453.36723	99.95783	68.68447	-451.13558	-31.27329	345.58248	-514.20075	-74.34492	327.92275	-705.90117	-70.33455	136.31040	-701.74992	-2.55438	150.97242	-714.47209	-39.56470	191.13981	-685.83563	-33.41501	93.48646	-550.84594	-24.67305	701.80508	-531.74261	21.84854	790.94398	-492.81237	-148.58676	434.55898	-466.04348	192.45608	469.84866	-599.64546	-138.52327	251.13882	-473.01474	196.03422	229.77881	
214	2.130	-397.39594	57.21899	940.29825	-524.04861	62.28763	986.32641	-431.30611	96.71764	648.04821	-434.71628	-79.60286	644.84550	-540.12633	45.97087	704.64340	-422.45583	66.17628	384.00559	-460.46919	128.45473	344.53818	-500.64667	140.61378	70.24982	-504.73792	71.77339	88.03476	-544.49772	104.52039	99.34087	-453.68365	100.50320	69.24940	-431.44645	-28.79534	348.90927	-493.71098	-72.61285	329.46061	-686.41547	-70.84063	139.80617	-682.56058	-2.75446	153.72634	-695.46436	-39.49611	194.12326	-665.50569	-34.49245	97.09008	-540.90345	-25.04225	703.83222	-521.54753	20.79712	793.40313	-475.16000	-146.98283	436.50491	-463.75814	194.72633	471.25984	-578.91020	-137.66092	254.17009	-475.47992	197.72507	230.17926	
215	2.140	-386.81508	55.37069	942.51385	-513.38115	59.66440	988.64410	-423.58782	98.59862	650.01451	-424.30490	-77.83149	646.03538	-531.24315	45.75558	707.15343	-421.12657	68.26712	384.42111	-460.61198	130.33109	345.59188	-501.37003	140.06602	71.07688	-504.20972	71.46553	89.14481	-544.68696	103.46291	100.51759	-453.81319	100.69976	69.80173	-411.74288	-26.20726	352.92006	-473.04254	-70.88247	331.51651	-665.75134	-71.43516	142.75740	-662.44421	-3.09065	156.10618	-675.71340	-39.66511	196.55320	-643.78812	-35.51679	100.46332	-531.16866	-25.21199	705.73493	-511.61462	20.00751	795.78195	-457.51584	-145.40195	438.89621	-461.14933	196.47320	472.47429	-557.52622	-136.85604	257.16645	-477.61356	198.81197	230.66633	
216	2.150	-376.31134	53.46914	944.56554	-502.74616	57.01860	990.87156	-415.95661	100.34993	651.73904	-414.07865	-76.13399	647.36679	-522.49802	45.63248	709.29196	-419.28596	69.84093	384.77672	-460.10454	131.67568	346.54851	-501.89214	139.28940	71.97921	-503.41566	70.87951	90.24049	-544.60059	102.11864	101.78821	-453.74266	100.66843	70.32324	-392.04802	-23.61259	357.50819	-452.24705	-69.20378	334.03116	-643.95961	-72.08873	145.09076	-641.40028	-3.53526	158.02690	-655.20297	-40.03025	198.35970	-620.77976	-36.46758	103.50554	-521.60570	-25.25223	707.43836	-501.91501	19.45485	798.00714	-439.92619	-143.88504	441.66917	-458.18012	197.77624	473.49985	-535.58445	-136.12015	260.06497	-479.20462	199.44000	231.22484	
